<svg height="80" viewBox="0 0 80 80" width="80" xmlns="http://www.w3.org/2000/svg" xmlns:xlink="http://www.w3.org/1999/xlink"><radialGradient id="a" cx="50%" cy="0%" r="100%"><stop offset="0" stop-color="#2b404e"/><stop offset="1" stop-color="#131e26"/></radialGradient><linearGradient id="b" x1="24.667772%" x2="81.812091%" y1="-8.655283%" y2="99.8308%"><stop offset="0" stop-color="#fff" stop-opacity="0"/><stop offset="1" stop-color="#fff"/></linearGradient><mask id="c" fill="#fff"><circle cx="40" cy="40" fill="#fff" fill-rule="evenodd" r="40"/></mask><g fill="none" fill-rule="evenodd" mask="url(#c)"><g transform="translate(5 -2)"><path d="m37.2830009 57.6955275c17.2522104 0 20.7405903 19.8805076 20.7405903 30.5206123-12.3128763.1933135-16.6288823 1.8483259-19.8777497 2.5564261-8.0045676 1.7446189-22.1141765 3.4814423-24.9591364-2.140211-4.15098245 2.6192966-8.40748717 4.2123284-12.76859898 4.7796724l10.37929118-14.7124991c4.5030568-8.5288834 8.3024674-14.1011396 11.398232-16.7167686 2.6499935-2.5550974 6.9357021-4.2872321 15.0873716-4.2872321z" fill="#1b2933" fill-rule="evenodd"/><g fill="none" fill-rule="evenodd" transform="translate(.901408)"><g transform="matrix(.99254615 -.12186934 .12186934 .99254615 .179669 7.039376)"><path d="m18.7003565 54.4034408c1.8501598-.2269646 16.2947609-.8910854 21.0541348-1.7736687 16.5735237-3.0734116.0207076-32.6089804-5.5690487-40.6505694-2.9044459-4.17842176-29.34576955-6.61267323-33.34552145 4.6127739-4.31794179 12.1184585 14.58469085 38.2133094 17.86043535 37.8114642z" fill="#da5757" stroke="#da5757" stroke-width=".6" transform="matrix(-1 0 0 1 47.13604 0)"/><g transform="translate(21.071808 34.475639)"><path d="m18.1599215.05048089c-.0618036.50289171-1.7349974 8.57852647-5.0195816 24.22690431l-13.1403399.8153476c1.66730252-4.7849413 2.18158744-8.969648 1.54285474-12.5541202-.95809905-5.37670834 16.70977196-13.24246927 16.61706676-12.48813171z" fill="#efc4bd"/><path d="m1.55548736 13.2638113c-.30001713-1.9518595 2.01971829-2.8519092 6.95920628-2.700149-4.4834349 3.2499116-6.71839681 4.7418215-6.70488573 4.4757296.051987-1.0238502-.03845604-.3712034-.25432055-1.7755806z" fill="#da5757" fill-opacity=".5"/></g><path d="m13.9309523 10.9412831c-4.88027779 17.3718396-5.52460459 28.4945087-1.9329804 33.3680072 6.4336308 8.5105564 22.7979743.5935436 29.3494158-10.5241028 8.983255-5.9087111 7.6600171 3.1872616 7.1312593-9.8891197s-5.2834008-16.22252982-13.6619656-20.64189008c-5.5857099-2.94624018-12.5476196-.38387172-20.8857291 7.68710538z" fill="#efc4bd"/><path d="m28.1705485 25.2970416.0982951.0064189c.4295035.0571943.7349336.4811738.6821972.9469846s-.4436691.7970599-.8731726.7398655c-.4295035-.0571943-.7349336-.4811738-.6821972-.9469846.0527364-.4658109.4436691-.7970599.8731726-.7398655zm-1.9304787-1.1550058c1.9894726-.1725555 3.5581146.230499 4.6940387 1.216252.0838195.0727384.0928404.1995792.0201488.2833069-.0726915.0837277-.1995687.0926363-.2833881.019898-1.0459207-.9076483-2.5072007-1.2831167-4.3957275-1.1193166-.1105258.0095863-.2079758-.0722168-.2176606-.1827125-.0096849-.1104957.0720629-.2078414.1825887-.2174278z" fill="#000" fill-rule="nonzero"/><path d="m15.3890101 20.89817.1025788.0059632c.4482193.0531558.7669592.4471425.7119318.8800023-.0550416.432858-.4630101.7406742-.9112312.6875332-.4482193-.0531558-.7669592-.4471425-.7119318-.8800023.0550416-.432858.4630102-.7406742.9112312-.6875332zm-1.9190533-1.6993029c2.0293296.0963959 3.552791.6621551 4.5573979 1.7022045.0741295.0767449.0651961.1931212-.0199534.2599338s-.2142707.058761-.2884003-.0179839c-.9250083-.9576425-2.3441999-1.4846796-4.2705613-1.5761844-.1127401-.0053553-.1993172-.0920695-.1933754-.1936816s.1021525-.1796437.2148925-.1742884z" fill="#000" fill-rule="nonzero"/><path d="m30.2027856 17.9305419c-.1725398-.1395088-.1992138-.3923471-.059578-.56473.1396358-.172383.3927041-.1990327.5652439-.0595239 1.4346759 1.1600219 2.8038824 1.6473107 4.1194019 1.486915.2203297-.0268639.4207394.1298088.4476277.3499381.0268883.2201294-.1299269.4203569-.3502565.4472208-1.5521046.1892415-3.1301784-.3723814-4.722439-1.65982z" fill="#000" fill-rule="nonzero" transform="matrix(-.97029573 -.2419219 .2419219 -.97029573 59.905291 44.198493)"/><path d="m12.3846262 13.347971c2.4134941-5.85141275 6.2538018-9.93630409 11.5209229-12.25467406 3.3994368-.72030579 6.0544223-.9645753 7.9649565-.73280855 4.1523342-1.51796815 14.7730332 3.75152279 20.0799875 19.19542501 5.4324196 15.8090216 5.1136509 37.909316-1.0417653 37.1522133-3.1019213-.3815295-11.9953959-1.273502-26.6804237-2.6759175 10.3301015-8.6915531 16.3542741-16.2971018 18.0725178-22.816646 4.8293933-18.324201-10.8745439-14.806058-14.9057512-26.37088847-.7582911.66359546-7.396963 7.51995137-15.0104445 8.50329627z" fill="#da5757" stroke="#da5757" stroke-width=".6"/><g stroke="#000" stroke-width=".6" transform="translate(9.619611 15.428082)"><ellipse cx="4.838112" cy="6.500943" rx="4.822822" ry="6.223816"/><ellipse cx="18.699743" cy="10.08182" rx="5.827447" ry="7.227818" transform="matrix(.98768834 .15643447 -.15643447 .98768834 1.807369 -2.80116)"/><path d="m9.691198 7.209911 3.617117.803073"/><path d="m24.740983 10.561007 8.58523-.87285"/></g><ellipse cx="44.181506" cy="29.7092" fill="#efc4bd" rx="4.018741" ry="5.220335" transform="matrix(.9612617 .27563736 -.27563736 .9612617 9.900482 -11.027189)"/><path d="m46.5639862 28.8522575-.3259721.2545895c-.4148874-.5198943-.9580464-.7694435-1.6391267-.7416097l-.1573195-.2561591c.2793519 1.7954742-.0088494 3.0144896-.8936178 3.6138284l-.2093926-.3770161c.679856-.4605319.9360917-1.4187132.7439896-2.9113619-.5103183.1096342-1.0859297.3499454-1.7298743.7223724l-.2096071-.3546975c1.9735779-1.141424 3.4700941-1.141424 4.4209205.050054z" fill="#000" fill-rule="nonzero"/><path d="m19.8654277 32.0710605c.0593812.0936746.0315118.2177071-.062248.2770343-.0937598.0593273-.2179052.0314832-.2772864-.0621914-.3885587-.612956-1.1868125-1.026149-2.4082242-1.2268565l-.3803552-.0625015.2690808-.2757548c2.2488188-2.3045958 3.5001859-4.5706367 3.7623805-6.7972647.0129673-.1101218.1128319-.1888906.2230539-.1759351.1102219.0129555.1890624.1127293.1760951.2228511-.2632953 2.2359763-1.4710022 4.4896725-3.6157481 6.7618527 1.1230705.2397444 1.8974703.6828661 2.3132516 1.3387659z" fill="#040404" fill-rule="nonzero"/><g fill="#da5757"><path d="m13.0770844 14.5030965c5.184523-.8537058 9.9105072-5.22944969 12.5839949-8.12896809-2.0047241 2.44664751-7.3672858 8.59992259-13.6646631 9.63687579 1.3227506-4.0885503 2.8236128-7.1403708 4.7879396-9.54519247-1.8105188 3.3150889-3.046276 5.99418387-3.7072714 8.03728477zm28.7100868 18.7519939c3.3836-18.0094083-11.7997739-16.5444824-15.32608-27.60901568.7661478-.84409823 1.270459-1.45931576 1.4489585-1.65177879 3.9964676 14.12613047 18.2295724 8.61953907 13.7725319 30.51677337-.0104293-.3995185.0224784-.8189374.1045896-1.2559789z" stroke="#da5757" stroke-width=".6"/><ellipse cx="29.810191" cy="35.190006" opacity=".4" rx="5.023773" ry="5.019206"/><path d="m10.1169996 35.3907739c2.7745533 0 5.0237732-2.2471751 5.0237732-5.0192061s-2.2492199-5.0192062-5.0237732-5.0192062c-2.77455336 0-2.77455336 10.0384123 0 10.0384123z" opacity=".4"/></g><path d="m14.5058989 15.4222256c-.1725398-.1395088-.1992138-.3923471-.059578-.56473.1396357-.172383.392704-.1990327.5652439-.0595239 1.4346759 1.1600219 2.8038824 1.6473107 4.1194019 1.486915.2203296-.0268639.4207394.1298088.4476277.3499381.0268883.2201294-.1299269.4203569-.3502566.4472208-1.5521045.1892415-3.1301783-.3723814-4.7224389-1.65982z" fill="#000" fill-rule="nonzero" transform="matrix(.58778525 .80901699 .80901699 -.58778525 -5.879099 11.538381)"/></g><g transform="translate(26.591549 2.904225)"><path d="m23.4366197 31.8622848c1.201878 4.0897235.8262911 6.839854-1.1267605 8.2503913-2.9295775 2.1158059-4.6656718 4.2316118-2.9295775 6.1721439s4.9668469.8137715 4.9668469 6.6729265c0 5.8591549-9.1404112 10.5915493-6.3189596 13.971831 2.8214517 3.3802817 9.2394366 3.8309859 6.7605634 6.5352112-2.4788732 2.7042254-4.056338 2.9295775-5.4084507 6.9859155-1.3521127 4.0563381 4.9668469 10.5915493 4.9668469 12.3943662" stroke="#2f2f2f" stroke-opacity=".397591" stroke-width=".5"/><g fill-rule="evenodd" transform="translate(0 -1.802817)"><circle cx="22.309859" cy="29.383412" fill="url(#a)" r="5.183099" stroke="#fff" stroke-width="1.802817"/><path d="m24.1126761 23.8873239c1.0516431-10.9671361-1.2769953-17.63747518-6.9859155-20.01101717s-9.53990614-3.51540949-11.49295778-3.4256025" stroke="url(#b)" stroke-linecap="round" stroke-linejoin="round" stroke-width="2.253521"/><path d="m19.8309859 33.4397496c-3.9061033 8.9556599-9.6901408 13.1622327-17.35211266 12.6197183" stroke="#fff" stroke-width="1.802817"/><circle cx="2.028169" cy="46.059468" fill="#f1f3f7" r="2.028169"/></g></g></g><path d="m29.7494485 60.5943662c.3542409.8528462 1.7373473 1.4274501 4.1493191 1.7238116 3.6179578.4445423 7.4918574-1.981294 8.4264965-2.8505722.9346391-.8692781-.0190728 4.8864437-2.1734155 6.9859155-1.4362285 1.3996479-5.4619516 2.8628717-12.0771692 4.3896714z" fill="#1b2933" fill-rule="nonzero"/><g fill="none"><path d="m21.1267606 40.0873239c1.6432432.9142858 3.2432432 1.3061225 4.8 1.1755102" stroke="#da5757" stroke-linecap="round" stroke-width=".6" transform="matrix(.99026807 -.1391731 .1391731 .99026807 -5.43362 3.670259)"/><g fill-rule="evenodd" transform="translate(29.197183 66.509859)"><path d="m0 0h14.422535v14.422535h-14.422535z"/><path d="m10.3661972 5.67459329c-.2368219.0230768-.42397039.02426786-.55810362.0016377-.24061952-.04034718-.42837566-.12699686-.56372414-.25965125-.13519657-.1326544-.24791102-.24118982-.33814334-.32590402s-.19550336-.12893234-.31566121-.1326544c-.12030976-.00357318-.22178314.02769216-.30442015.09394492-.08278891.05895751-.1578306.12342368-.22558079.1933985-.06759829.06997483-.39450057.4954813-.98085874 1.27622167-.58620626.78088926-.93574257 1.20818233-1.04845701 1.28173033-.11271445.07369689-.18790805.01295279-.22542889-.1822323-.03767276-.1951851-.12410742-.48237964-.25930399-.86188139-.13534848-.37935287-.27814037-.65746558-.42852757-.83433811-.1503872-.17672365-.33069993-.25027165-.5410901-.22094178-.21054208.02947875-.3663979.13250552-.46787129.30937805-.10147338.17672365-.05635722.44203245.13519658.79562863.1917057.35359618.35515684.72193174.49050532 1.10500667.13519657.38307494.21039017.69245299.22542889.92813415.01503872.23583004.06775019.44203245.1578306.6187561.09023232.17687253.2328723.30937805.42852757.39781431.19535145.08843627.37566418.07369689.5410901-.04421813.16527401-.11776614.30062249-.26515992.40589353-.44203245.10511913-.17672365.32310462-.5082852.65395646-.9943869.33054802-.48625058.62372711-.8840649.87938535-1.19344295.25535442-.30937804.48275809-.56352065.68205911-.76242781.1989972-.19890715.48853054-.34257886.86814428-.43101513.14491858-.03364747.395412-.09404418.75148025-.18119013" fill="#fff"/></g></g></g></g></svg>